<svg xmlns="http://www.w3.org/2000/svg" viewBox="0 0 800 512" width="800" height="512">
<rect width="800" height="512" rx="8" ry="8" fill="#35383f"/>
<style>text { font-family: 'JetBrains Mono', 'Fira Code', 'SF Mono', 'Cascadia Code', Menlo, Monaco, monospace; font-size: 13.5px; }</style>
<text x="112" y="111" fill="#c85a1a">┌  </text><text x="131.2" y="111" fill="#dc7828">N  </text><text x="140.8" y="111" fill="#dc7828">e  </text><text x="150.4" y="111" fill="#dc7828">w  </text><text x="169.6" y="111" fill="#dc7828">T  </text><text x="179.2" y="111" fill="#dc7828">a  </text><text x="188.79999999999998" y="111" fill="#dc7828">s  </text><text x="198.4" y="111" fill="#dc7828">k  </text><text x="217.6" y="111" fill="#c85a1a">─  </text><text x="227.2" y="111" fill="#c85a1a">─  </text><text x="236.79999999999998" y="111" fill="#c85a1a">─  </text><text x="246.39999999999998" y="111" fill="#c85a1a">─  </text><text x="256" y="111" fill="#c85a1a">─  </text><text x="265.6" y="111" fill="#c85a1a">─  </text><text x="275.2" y="111" fill="#c85a1a">─  </text><text x="284.8" y="111" fill="#c85a1a">─  </text><text x="294.4" y="111" fill="#c85a1a">─  </text><text x="304" y="111" fill="#c85a1a">─  </text><text x="313.59999999999997" y="111" fill="#c85a1a">─  </text><text x="323.2" y="111" fill="#c85a1a">─  </text><text x="332.8" y="111" fill="#c85a1a">─  </text><text x="342.4" y="111" fill="#c85a1a">─  </text><text x="352" y="111" fill="#c85a1a">─  </text><text x="361.59999999999997" y="111" fill="#c85a1a">─  </text><text x="371.2" y="111" fill="#c85a1a">─  </text><text x="380.8" y="111" fill="#c85a1a">─  </text><text x="390.4" y="111" fill="#c85a1a">─  </text><text x="400" y="111" fill="#c85a1a">─  </text><text x="409.59999999999997" y="111" fill="#c85a1a">─  </text><text x="419.2" y="111" fill="#c85a1a">─  </text><text x="428.8" y="111" fill="#c85a1a">─  </text><text x="438.4" y="111" fill="#c85a1a">─  </text><text x="448" y="111" fill="#c85a1a">─  </text><text x="457.59999999999997" y="111" fill="#c85a1a">─  </text><text x="467.2" y="111" fill="#c85a1a">─  </text><text x="476.79999999999995" y="111" fill="#c85a1a">─  </text><text x="486.4" y="111" fill="#c85a1a">─  </text><text x="496" y="111" fill="#c85a1a">─  </text><text x="505.59999999999997" y="111" fill="#c85a1a">─  </text><text x="515.2" y="111" fill="#c85a1a">─  </text><text x="524.8" y="111" fill="#c85a1a">─  </text><text x="534.4" y="111" fill="#c85a1a">─  </text><text x="544" y="111" fill="#c85a1a">─  </text><text x="553.6" y="111" fill="#c85a1a">─  </text><text x="563.1999999999999" y="111" fill="#c85a1a">─  </text><text x="572.8" y="111" fill="#c85a1a">─  </text><text x="582.4" y="111" fill="#c85a1a">─  </text><text x="592" y="111" fill="#c85a1a">─  </text><text x="601.6" y="111" fill="#c85a1a">─  </text><text x="611.1999999999999" y="111" fill="#c85a1a">─  </text><text x="620.8" y="111" fill="#c85a1a">─  </text><text x="630.4" y="111" fill="#c85a1a">─  </text><text x="640" y="111" fill="#c85a1a">─  </text><text x="649.6" y="111" fill="#c85a1a">─  </text><text x="659.1999999999999" y="111" fill="#c85a1a">─  </text><text x="668.8" y="111" fill="#c85a1a">─  </text><text x="678.4" y="111" fill="#c85a1a">┐  </text><text x="112" y="131" fill="#c85a1a">│  </text><text x="121.6" y="131" fill="#b4b4c3">T  </text><text x="131.2" y="131" fill="#b4b4c3">i  </text><text x="140.8" y="131" fill="#b4b4c3">t  </text><text x="150.4" y="131" fill="#b4b4c3">l  </text><text x="160" y="131" fill="#b4b4c3">e  </text><text x="169.6" y="131" fill="#b4b4c3">:  </text><text x="678.4" y="131" fill="#c85a1a">│  </text><text x="112" y="151" fill="#c85a1a">│  </text><text x="121.6" y="151" fill="#dc7828">┌  </text><text x="131.2" y="151" fill="#dc7828">─  </text><text x="140.8" y="151" fill="#dc7828">─  </text><text x="150.4" y="151" fill="#dc7828">─  </text><text x="160" y="151" fill="#dc7828">─  </text><text x="169.6" y="151" fill="#dc7828">─  </text><text x="179.2" y="151" fill="#dc7828">─  </text><text x="188.79999999999998" y="151" fill="#dc7828">─  </text><text x="198.4" y="151" fill="#dc7828">─  </text><text x="208" y="151" fill="#dc7828">─  </text><text x="217.6" y="151" fill="#dc7828">─  </text><text x="227.2" y="151" fill="#dc7828">─  </text><text x="236.79999999999998" y="151" fill="#dc7828">─  </text><text x="246.39999999999998" y="151" fill="#dc7828">─  </text><text x="256" y="151" fill="#dc7828">─  </text><text x="265.6" y="151" fill="#dc7828">─  </text><text x="275.2" y="151" fill="#dc7828">─  </text><text x="284.8" y="151" fill="#dc7828">─  </text><text x="294.4" y="151" fill="#dc7828">─  </text><text x="304" y="151" fill="#dc7828">─  </text><text x="313.59999999999997" y="151" fill="#dc7828">─  </text><text x="323.2" y="151" fill="#dc7828">─  </text><text x="332.8" y="151" fill="#dc7828">─  </text><text x="342.4" y="151" fill="#dc7828">─  </text><text x="352" y="151" fill="#dc7828">─  </text><text x="361.59999999999997" y="151" fill="#dc7828">─  </text><text x="371.2" y="151" fill="#dc7828">─  </text><text x="380.8" y="151" fill="#dc7828">─  </text><text x="390.4" y="151" fill="#dc7828">─  </text><text x="400" y="151" fill="#dc7828">─  </text><text x="409.59999999999997" y="151" fill="#dc7828">─  </text><text x="419.2" y="151" fill="#dc7828">─  </text><text x="428.8" y="151" fill="#dc7828">─  </text><text x="438.4" y="151" fill="#dc7828">─  </text><text x="448" y="151" fill="#dc7828">─  </text><text x="457.59999999999997" y="151" fill="#dc7828">─  </text><text x="467.2" y="151" fill="#dc7828">─  </text><text x="476.79999999999995" y="151" fill="#dc7828">─  </text><text x="486.4" y="151" fill="#dc7828">─  </text><text x="496" y="151" fill="#dc7828">─  </text><text x="505.59999999999997" y="151" fill="#dc7828">─  </text><text x="515.2" y="151" fill="#dc7828">─  </text><text x="524.8" y="151" fill="#dc7828">─  </text><text x="534.4" y="151" fill="#dc7828">─  </text><text x="544" y="151" fill="#dc7828">─  </text><text x="553.6" y="151" fill="#dc7828">─  </text><text x="563.1999999999999" y="151" fill="#dc7828">─  </text><text x="572.8" y="151" fill="#dc7828">─  </text><text x="582.4" y="151" fill="#dc7828">─  </text><text x="592" y="151" fill="#dc7828">─  </text><text x="601.6" y="151" fill="#dc7828">─  </text><text x="611.1999999999999" y="151" fill="#dc7828">─  </text><text x="620.8" y="151" fill="#dc7828">─  </text><text x="630.4" y="151" fill="#dc7828">─  </text><text x="640" y="151" fill="#dc7828">─  </text><text x="649.6" y="151" fill="#dc7828">─  </text><text x="659.1999999999999" y="151" fill="#dc7828">─  </text><text x="668.8" y="151" fill="#dc7828">┐  </text><text x="678.4" y="151" fill="#c85a1a">│  </text><text x="112" y="171" fill="#c85a1a">│  </text><text x="121.6" y="171" fill="#dc7828">│  </text><text x="131.2" y="171" fill="#b4b4c3">f  </text><text x="140.8" y="171" fill="#b4b4c3">i  </text><text x="150.4" y="171" fill="#b4b4c3">x  </text><text x="160" y="171" fill="#b4b4c3">-  </text><text x="169.6" y="171" fill="#b4b4c3">a  </text><text x="179.2" y="171" fill="#b4b4c3">u  </text><text x="188.79999999999998" y="171" fill="#b4b4c3">t  </text><text x="198.4" y="171" fill="#b4b4c3">h  </text><text x="208" y="171" fill="#b4b4c3">-  </text><text x="217.6" y="171" fill="#b4b4c3">m  </text><text x="227.2" y="171" fill="#b4b4c3">i  </text><text x="236.79999999999998" y="171" fill="#b4b4c3">d  </text><text x="246.39999999999998" y="171" fill="#b4b4c3">d  </text><text x="256" y="171" fill="#b4b4c3">l  </text><text x="265.6" y="171" fill="#b4b4c3">e  </text><text x="275.2" y="171" fill="#b4b4c3">w  </text><text x="284.8" y="171" fill="#b4b4c3">a  </text><text x="294.4" y="171" fill="#b4b4c3">r  </text><text x="304" y="171" fill="#b4b4c3">e  </text><text x="668.8" y="171" fill="#dc7828">│  </text><text x="678.4" y="171" fill="#c85a1a">│  </text><text x="112" y="191" fill="#c85a1a">│  </text><text x="121.6" y="191" fill="#dc7828">└  </text><text x="131.2" y="191" fill="#dc7828">─  </text><text x="140.8" y="191" fill="#dc7828">─  </text><text x="150.4" y="191" fill="#dc7828">─  </text><text x="160" y="191" fill="#dc7828">─  </text><text x="169.6" y="191" fill="#dc7828">─  </text><text x="179.2" y="191" fill="#dc7828">─  </text><text x="188.79999999999998" y="191" fill="#dc7828">─  </text><text x="198.4" y="191" fill="#dc7828">─  </text><text x="208" y="191" fill="#dc7828">─  </text><text x="217.6" y="191" fill="#dc7828">─  </text><text x="227.2" y="191" fill="#dc7828">─  </text><text x="236.79999999999998" y="191" fill="#dc7828">─  </text><text x="246.39999999999998" y="191" fill="#dc7828">─  </text><text x="256" y="191" fill="#dc7828">─  </text><text x="265.6" y="191" fill="#dc7828">─  </text><text x="275.2" y="191" fill="#dc7828">─  </text><text x="284.8" y="191" fill="#dc7828">─  </text><text x="294.4" y="191" fill="#dc7828">─  </text><text x="304" y="191" fill="#dc7828">─  </text><text x="313.59999999999997" y="191" fill="#dc7828">─  </text><text x="323.2" y="191" fill="#dc7828">─  </text><text x="332.8" y="191" fill="#dc7828">─  </text><text x="342.4" y="191" fill="#dc7828">─  </text><text x="352" y="191" fill="#dc7828">─  </text><text x="361.59999999999997" y="191" fill="#dc7828">─  </text><text x="371.2" y="191" fill="#dc7828">─  </text><text x="380.8" y="191" fill="#dc7828">─  </text><text x="390.4" y="191" fill="#dc7828">─  </text><text x="400" y="191" fill="#dc7828">─  </text><text x="409.59999999999997" y="191" fill="#dc7828">─  </text><text x="419.2" y="191" fill="#dc7828">─  </text><text x="428.8" y="191" fill="#dc7828">─  </text><text x="438.4" y="191" fill="#dc7828">─  </text><text x="448" y="191" fill="#dc7828">─  </text><text x="457.59999999999997" y="191" fill="#dc7828">─  </text><text x="467.2" y="191" fill="#dc7828">─  </text><text x="476.79999999999995" y="191" fill="#dc7828">─  </text><text x="486.4" y="191" fill="#dc7828">─  </text><text x="496" y="191" fill="#dc7828">─  </text><text x="505.59999999999997" y="191" fill="#dc7828">─  </text><text x="515.2" y="191" fill="#dc7828">─  </text><text x="524.8" y="191" fill="#dc7828">─  </text><text x="534.4" y="191" fill="#dc7828">─  </text><text x="544" y="191" fill="#dc7828">─  </text><text x="553.6" y="191" fill="#dc7828">─  </text><text x="563.1999999999999" y="191" fill="#dc7828">─  </text><text x="572.8" y="191" fill="#dc7828">─  </text><text x="582.4" y="191" fill="#dc7828">─  </text><text x="592" y="191" fill="#dc7828">─  </text><text x="601.6" y="191" fill="#dc7828">─  </text><text x="611.1999999999999" y="191" fill="#dc7828">─  </text><text x="620.8" y="191" fill="#dc7828">─  </text><text x="630.4" y="191" fill="#dc7828">─  </text><text x="640" y="191" fill="#dc7828">─  </text><text x="649.6" y="191" fill="#dc7828">─  </text><text x="659.1999999999999" y="191" fill="#dc7828">─  </text><text x="668.8" y="191" fill="#dc7828">┘  </text><text x="678.4" y="191" fill="#c85a1a">│  </text><text x="112" y="211" fill="#c85a1a">│  </text><text x="121.6" y="211" fill="#b4b4c3">D  </text><text x="131.2" y="211" fill="#b4b4c3">i  </text><text x="140.8" y="211" fill="#b4b4c3">r  </text><text x="150.4" y="211" fill="#b4b4c3">e  </text><text x="160" y="211" fill="#b4b4c3">c  </text><text x="169.6" y="211" fill="#b4b4c3">t  </text><text x="179.2" y="211" fill="#b4b4c3">o  </text><text x="188.79999999999998" y="211" fill="#b4b4c3">r  </text><text x="198.4" y="211" fill="#b4b4c3">y  </text><text x="208" y="211" fill="#b4b4c3">:  </text><text x="678.4" y="211" fill="#c85a1a">│  </text><text x="112" y="231" fill="#c85a1a">│  </text><text x="121.6" y="231" fill="#3c3c50">┌  </text><text x="131.2" y="231" fill="#3c3c50">─  </text><text x="140.8" y="231" fill="#3c3c50">─  </text><text x="150.4" y="231" fill="#3c3c50">─  </text><text x="160" y="231" fill="#3c3c50">─  </text><text x="169.6" y="231" fill="#3c3c50">─  </text><text x="179.2" y="231" fill="#3c3c50">─  </text><text x="188.79999999999998" y="231" fill="#3c3c50">─  </text><text x="198.4" y="231" fill="#3c3c50">─  </text><text x="208" y="231" fill="#3c3c50">─  </text><text x="217.6" y="231" fill="#3c3c50">─  </text><text x="227.2" y="231" fill="#3c3c50">─  </text><text x="236.79999999999998" y="231" fill="#3c3c50">─  </text><text x="246.39999999999998" y="231" fill="#3c3c50">─  </text><text x="256" y="231" fill="#3c3c50">─  </text><text x="265.6" y="231" fill="#3c3c50">─  </text><text x="275.2" y="231" fill="#3c3c50">─  </text><text x="284.8" y="231" fill="#3c3c50">─  </text><text x="294.4" y="231" fill="#3c3c50">─  </text><text x="304" y="231" fill="#3c3c50">─  </text><text x="313.59999999999997" y="231" fill="#3c3c50">─  </text><text x="323.2" y="231" fill="#3c3c50">─  </text><text x="332.8" y="231" fill="#3c3c50">─  </text><text x="342.4" y="231" fill="#3c3c50">─  </text><text x="352" y="231" fill="#3c3c50">─  </text><text x="361.59999999999997" y="231" fill="#3c3c50">─  </text><text x="371.2" y="231" fill="#3c3c50">─  </text><text x="380.8" y="231" fill="#3c3c50">─  </text><text x="390.4" y="231" fill="#3c3c50">─  </text><text x="400" y="231" fill="#3c3c50">─  </text><text x="409.59999999999997" y="231" fill="#3c3c50">─  </text><text x="419.2" y="231" fill="#3c3c50">─  </text><text x="428.8" y="231" fill="#3c3c50">─  </text><text x="438.4" y="231" fill="#3c3c50">─  </text><text x="448" y="231" fill="#3c3c50">─  </text><text x="457.59999999999997" y="231" fill="#3c3c50">─  </text><text x="467.2" y="231" fill="#3c3c50">─  </text><text x="476.79999999999995" y="231" fill="#3c3c50">─  </text><text x="486.4" y="231" fill="#3c3c50">─  </text><text x="496" y="231" fill="#3c3c50">─  </text><text x="505.59999999999997" y="231" fill="#3c3c50">─  </text><text x="515.2" y="231" fill="#3c3c50">─  </text><text x="524.8" y="231" fill="#3c3c50">─  </text><text x="534.4" y="231" fill="#3c3c50">─  </text><text x="544" y="231" fill="#3c3c50">─  </text><text x="553.6" y="231" fill="#3c3c50">─  </text><text x="563.1999999999999" y="231" fill="#3c3c50">─  </text><text x="572.8" y="231" fill="#3c3c50">─  </text><text x="582.4" y="231" fill="#3c3c50">─  </text><text x="592" y="231" fill="#3c3c50">─  </text><text x="601.6" y="231" fill="#3c3c50">─  </text><text x="611.1999999999999" y="231" fill="#3c3c50">─  </text><text x="620.8" y="231" fill="#3c3c50">─  </text><text x="630.4" y="231" fill="#3c3c50">─  </text><text x="640" y="231" fill="#3c3c50">─  </text><text x="649.6" y="231" fill="#3c3c50">─  </text><text x="659.1999999999999" y="231" fill="#3c3c50">─  </text><text x="668.8" y="231" fill="#3c3c50">┐  </text><text x="678.4" y="231" fill="#c85a1a">│  </text><text x="112" y="251" fill="#c85a1a">│  </text><text x="121.6" y="251" fill="#3c3c50">│  </text><text x="131.2" y="251" fill="#b4b4c3">/  </text><text x="140.8" y="251" fill="#b4b4c3">h  </text><text x="150.4" y="251" fill="#b4b4c3">o  </text><text x="160" y="251" fill="#b4b4c3">m  </text><text x="169.6" y="251" fill="#b4b4c3">e  </text><text x="179.2" y="251" fill="#b4b4c3">/  </text><text x="188.79999999999998" y="251" fill="#b4b4c3">d  </text><text x="198.4" y="251" fill="#b4b4c3">e  </text><text x="208" y="251" fill="#b4b4c3">v  </text><text x="217.6" y="251" fill="#b4b4c3">/  </text><text x="227.2" y="251" fill="#b4b4c3">a  </text><text x="236.79999999999998" y="251" fill="#b4b4c3">p  </text><text x="246.39999999999998" y="251" fill="#b4b4c3">i  </text><text x="256" y="251" fill="#b4b4c3">-  </text><text x="265.6" y="251" fill="#4a6a8a">s  </text><text x="275.2" y="251" fill="#4a6a8a">e  </text><text x="284.8" y="251" fill="#4a6a8a">r  </text><text x="294.4" y="251" fill="#4a6a8a">v  </text><text x="304" y="251" fill="#4a6a8a">e  </text><text x="313.59999999999997" y="251" fill="#4a6a8a">r  </text><text x="323.2" y="251" fill="#4a6a8a">/  </text><text x="668.8" y="251" fill="#3c3c50">│  </text><text x="678.4" y="251" fill="#c85a1a">│  </text><text x="112" y="271" fill="#c85a1a">│  </text><text x="121.6" y="271" fill="#3c3c50">└  </text><text x="131.2" y="271" fill="#3c3c50">─  </text><text x="140.8" y="271" fill="#3c3c50">─  </text><text x="150.4" y="271" fill="#3c3c50">─  </text><text x="160" y="271" fill="#3c3c50">─  </text><text x="169.6" y="271" fill="#3c3c50">─  </text><text x="179.2" y="271" fill="#3c3c50">─  </text><text x="188.79999999999998" y="271" fill="#3c3c50">─  </text><text x="198.4" y="271" fill="#3c3c50">─  </text><text x="208" y="271" fill="#3c3c50">─  </text><text x="217.6" y="271" fill="#3c3c50">─  </text><text x="227.2" y="271" fill="#3c3c50">─  </text><text x="236.79999999999998" y="271" fill="#3c3c50">─  </text><text x="246.39999999999998" y="271" fill="#3c3c50">─  </text><text x="256" y="271" fill="#3c3c50">─  </text><text x="265.6" y="271" fill="#3c3c50">─  </text><text x="275.2" y="271" fill="#3c3c50">─  </text><text x="284.8" y="271" fill="#3c3c50">─  </text><text x="294.4" y="271" fill="#3c3c50">─  </text><text x="304" y="271" fill="#3c3c50">─  </text><text x="313.59999999999997" y="271" fill="#3c3c50">─  </text><text x="323.2" y="271" fill="#3c3c50">─  </text><text x="332.8" y="271" fill="#3c3c50">─  </text><text x="342.4" y="271" fill="#3c3c50">─  </text><text x="352" y="271" fill="#3c3c50">─  </text><text x="361.59999999999997" y="271" fill="#3c3c50">─  </text><text x="371.2" y="271" fill="#3c3c50">─  </text><text x="380.8" y="271" fill="#3c3c50">─  </text><text x="390.4" y="271" fill="#3c3c50">─  </text><text x="400" y="271" fill="#3c3c50">─  </text><text x="409.59999999999997" y="271" fill="#3c3c50">─  </text><text x="419.2" y="271" fill="#3c3c50">─  </text><text x="428.8" y="271" fill="#3c3c50">─  </text><text x="438.4" y="271" fill="#3c3c50">─  </text><text x="448" y="271" fill="#3c3c50">─  </text><text x="457.59999999999997" y="271" fill="#3c3c50">─  </text><text x="467.2" y="271" fill="#3c3c50">─  </text><text x="476.79999999999995" y="271" fill="#3c3c50">─  </text><text x="486.4" y="271" fill="#3c3c50">─  </text><text x="496" y="271" fill="#3c3c50">─  </text><text x="505.59999999999997" y="271" fill="#3c3c50">─  </text><text x="515.2" y="271" fill="#3c3c50">─  </text><text x="524.8" y="271" fill="#3c3c50">─  </text><text x="534.4" y="271" fill="#3c3c50">─  </text><text x="544" y="271" fill="#3c3c50">─  </text><text x="553.6" y="271" fill="#3c3c50">─  </text><text x="563.1999999999999" y="271" fill="#3c3c50">─  </text><text x="572.8" y="271" fill="#3c3c50">─  </text><text x="582.4" y="271" fill="#3c3c50">─  </text><text x="592" y="271" fill="#3c3c50">─  </text><text x="601.6" y="271" fill="#3c3c50">─  </text><text x="611.1999999999999" y="271" fill="#3c3c50">─  </text><text x="620.8" y="271" fill="#3c3c50">─  </text><text x="630.4" y="271" fill="#3c3c50">─  </text><text x="640" y="271" fill="#3c3c50">─  </text><text x="649.6" y="271" fill="#3c3c50">─  </text><text x="659.1999999999999" y="271" fill="#3c3c50">─  </text><text x="668.8" y="271" fill="#3c3c50">┘  </text><text x="678.4" y="271" fill="#c85a1a">│  </text><text x="112" y="291" fill="#c85a1a">│  </text><text x="121.6" y="291" fill="#b4b4c3">I  </text><text x="131.2" y="291" fill="#b4b4c3">n  </text><text x="140.8" y="291" fill="#b4b4c3">i  </text><text x="150.4" y="291" fill="#b4b4c3">t  </text><text x="160" y="291" fill="#b4b4c3">i  </text><text x="169.6" y="291" fill="#b4b4c3">a  </text><text x="179.2" y="291" fill="#b4b4c3">l  </text><text x="198.4" y="291" fill="#b4b4c3">p  </text><text x="208" y="291" fill="#b4b4c3">r  </text><text x="217.6" y="291" fill="#b4b4c3">o  </text><text x="227.2" y="291" fill="#b4b4c3">m  </text><text x="236.79999999999998" y="291" fill="#b4b4c3">p  </text><text x="246.39999999999998" y="291" fill="#b4b4c3">t  </text><text x="265.6" y="291" fill="#b4b4c3">(  </text><text x="275.2" y="291" fill="#b4b4c3">o  </text><text x="284.8" y="291" fill="#b4b4c3">p  </text><text x="294.4" y="291" fill="#b4b4c3">t  </text><text x="304" y="291" fill="#b4b4c3">i  </text><text x="313.59999999999997" y="291" fill="#b4b4c3">o  </text><text x="323.2" y="291" fill="#b4b4c3">n  </text><text x="332.8" y="291" fill="#b4b4c3">a  </text><text x="342.4" y="291" fill="#b4b4c3">l  </text><text x="352" y="291" fill="#b4b4c3">)  </text><text x="361.59999999999997" y="291" fill="#b4b4c3">:  </text><text x="678.4" y="291" fill="#c85a1a">│  </text><text x="112" y="311" fill="#c85a1a">│  </text><text x="121.6" y="311" fill="#3c3c50">┌  </text><text x="131.2" y="311" fill="#3c3c50">─  </text><text x="140.8" y="311" fill="#3c3c50">─  </text><text x="150.4" y="311" fill="#3c3c50">─  </text><text x="160" y="311" fill="#3c3c50">─  </text><text x="169.6" y="311" fill="#3c3c50">─  </text><text x="179.2" y="311" fill="#3c3c50">─  </text><text x="188.79999999999998" y="311" fill="#3c3c50">─  </text><text x="198.4" y="311" fill="#3c3c50">─  </text><text x="208" y="311" fill="#3c3c50">─  </text><text x="217.6" y="311" fill="#3c3c50">─  </text><text x="227.2" y="311" fill="#3c3c50">─  </text><text x="236.79999999999998" y="311" fill="#3c3c50">─  </text><text x="246.39999999999998" y="311" fill="#3c3c50">─  </text><text x="256" y="311" fill="#3c3c50">─  </text><text x="265.6" y="311" fill="#3c3c50">─  </text><text x="275.2" y="311" fill="#3c3c50">─  </text><text x="284.8" y="311" fill="#3c3c50">─  </text><text x="294.4" y="311" fill="#3c3c50">─  </text><text x="304" y="311" fill="#3c3c50">─  </text><text x="313.59999999999997" y="311" fill="#3c3c50">─  </text><text x="323.2" y="311" fill="#3c3c50">─  </text><text x="332.8" y="311" fill="#3c3c50">─  </text><text x="342.4" y="311" fill="#3c3c50">─  </text><text x="352" y="311" fill="#3c3c50">─  </text><text x="361.59999999999997" y="311" fill="#3c3c50">─  </text><text x="371.2" y="311" fill="#3c3c50">─  </text><text x="380.8" y="311" fill="#3c3c50">─  </text><text x="390.4" y="311" fill="#3c3c50">─  </text><text x="400" y="311" fill="#3c3c50">─  </text><text x="409.59999999999997" y="311" fill="#3c3c50">─  </text><text x="419.2" y="311" fill="#3c3c50">─  </text><text x="428.8" y="311" fill="#3c3c50">─  </text><text x="438.4" y="311" fill="#3c3c50">─  </text><text x="448" y="311" fill="#3c3c50">─  </text><text x="457.59999999999997" y="311" fill="#3c3c50">─  </text><text x="467.2" y="311" fill="#3c3c50">─  </text><text x="476.79999999999995" y="311" fill="#3c3c50">─  </text><text x="486.4" y="311" fill="#3c3c50">─  </text><text x="496" y="311" fill="#3c3c50">─  </text><text x="505.59999999999997" y="311" fill="#3c3c50">─  </text><text x="515.2" y="311" fill="#3c3c50">─  </text><text x="524.8" y="311" fill="#3c3c50">─  </text><text x="534.4" y="311" fill="#3c3c50">─  </text><text x="544" y="311" fill="#3c3c50">─  </text><text x="553.6" y="311" fill="#3c3c50">─  </text><text x="563.1999999999999" y="311" fill="#3c3c50">─  </text><text x="572.8" y="311" fill="#3c3c50">─  </text><text x="582.4" y="311" fill="#3c3c50">─  </text><text x="592" y="311" fill="#3c3c50">─  </text><text x="601.6" y="311" fill="#3c3c50">─  </text><text x="611.1999999999999" y="311" fill="#3c3c50">─  </text><text x="620.8" y="311" fill="#3c3c50">─  </text><text x="630.4" y="311" fill="#3c3c50">─  </text><text x="640" y="311" fill="#3c3c50">─  </text><text x="649.6" y="311" fill="#3c3c50">─  </text><text x="659.1999999999999" y="311" fill="#3c3c50">─  </text><text x="668.8" y="311" fill="#3c3c50">┐  </text><text x="678.4" y="311" fill="#c85a1a">│  </text><text x="112" y="331" fill="#c85a1a">│  </text><text x="121.6" y="331" fill="#3c3c50">│  </text><text x="131.2" y="331" fill="#b4b4c3">f  </text><text x="140.8" y="331" fill="#b4b4c3">i  </text><text x="150.4" y="331" fill="#b4b4c3">x  </text><text x="169.6" y="331" fill="#b4b4c3">t  </text><text x="179.2" y="331" fill="#b4b4c3">h  </text><text x="188.79999999999998" y="331" fill="#b4b4c3">e  </text><text x="208" y="331" fill="#b4b4c3">J  </text><text x="217.6" y="331" fill="#b4b4c3">W  </text><text x="227.2" y="331" fill="#b4b4c3">T  </text><text x="246.39999999999998" y="331" fill="#b4b4c3">t  </text><text x="256" y="331" fill="#b4b4c3">o  </text><text x="265.6" y="331" fill="#b4b4c3">k  </text><text x="275.2" y="331" fill="#b4b4c3">e  </text><text x="284.8" y="331" fill="#b4b4c3">n  </text><text x="304" y="331" fill="#b4b4c3">v  </text><text x="313.59999999999997" y="331" fill="#b4b4c3">a  </text><text x="323.2" y="331" fill="#b4b4c3">l  </text><text x="332.8" y="331" fill="#b4b4c3">i  </text><text x="342.4" y="331" fill="#b4b4c3">d  </text><text x="352" y="331" fill="#b4b4c3">a  </text><text x="361.59999999999997" y="331" fill="#b4b4c3">t  </text><text x="371.2" y="331" fill="#b4b4c3">i  </text><text x="380.8" y="331" fill="#b4b4c3">o  </text><text x="390.4" y="331" fill="#b4b4c3">n  </text><text x="409.59999999999997" y="331" fill="#b4b4c3">b  </text><text x="419.2" y="331" fill="#b4b4c3">u  </text><text x="428.8" y="331" fill="#b4b4c3">g  </text><text x="668.8" y="331" fill="#3c3c50">│  </text><text x="678.4" y="331" fill="#c85a1a">│  </text><text x="112" y="351" fill="#c85a1a">│  </text><text x="121.6" y="351" fill="#3c3c50">└  </text><text x="131.2" y="351" fill="#3c3c50">─  </text><text x="140.8" y="351" fill="#3c3c50">─  </text><text x="150.4" y="351" fill="#3c3c50">─  </text><text x="160" y="351" fill="#3c3c50">─  </text><text x="169.6" y="351" fill="#3c3c50">─  </text><text x="179.2" y="351" fill="#3c3c50">─  </text><text x="188.79999999999998" y="351" fill="#3c3c50">─  </text><text x="198.4" y="351" fill="#3c3c50">─  </text><text x="208" y="351" fill="#3c3c50">─  </text><text x="217.6" y="351" fill="#3c3c50">─  </text><text x="227.2" y="351" fill="#3c3c50">─  </text><text x="236.79999999999998" y="351" fill="#3c3c50">─  </text><text x="246.39999999999998" y="351" fill="#3c3c50">─  </text><text x="256" y="351" fill="#3c3c50">─  </text><text x="265.6" y="351" fill="#3c3c50">─  </text><text x="275.2" y="351" fill="#3c3c50">─  </text><text x="284.8" y="351" fill="#3c3c50">─  </text><text x="294.4" y="351" fill="#3c3c50">─  </text><text x="304" y="351" fill="#3c3c50">─  </text><text x="313.59999999999997" y="351" fill="#3c3c50">─  </text><text x="323.2" y="351" fill="#3c3c50">─  </text><text x="332.8" y="351" fill="#3c3c50">─  </text><text x="342.4" y="351" fill="#3c3c50">─  </text><text x="352" y="351" fill="#3c3c50">─  </text><text x="361.59999999999997" y="351" fill="#3c3c50">─  </text><text x="371.2" y="351" fill="#3c3c50">─  </text><text x="380.8" y="351" fill="#3c3c50">─  </text><text x="390.4" y="351" fill="#3c3c50">─  </text><text x="400" y="351" fill="#3c3c50">─  </text><text x="409.59999999999997" y="351" fill="#3c3c50">─  </text><text x="419.2" y="351" fill="#3c3c50">─  </text><text x="428.8" y="351" fill="#3c3c50">─  </text><text x="438.4" y="351" fill="#3c3c50">─  </text><text x="448" y="351" fill="#3c3c50">─  </text><text x="457.59999999999997" y="351" fill="#3c3c50">─  </text><text x="467.2" y="351" fill="#3c3c50">─  </text><text x="476.79999999999995" y="351" fill="#3c3c50">─  </text><text x="486.4" y="351" fill="#3c3c50">─  </text><text x="496" y="351" fill="#3c3c50">─  </text><text x="505.59999999999997" y="351" fill="#3c3c50">─  </text><text x="515.2" y="351" fill="#3c3c50">─  </text><text x="524.8" y="351" fill="#3c3c50">─  </text><text x="534.4" y="351" fill="#3c3c50">─  </text><text x="544" y="351" fill="#3c3c50">─  </text><text x="553.6" y="351" fill="#3c3c50">─  </text><text x="563.1999999999999" y="351" fill="#3c3c50">─  </text><text x="572.8" y="351" fill="#3c3c50">─  </text><text x="582.4" y="351" fill="#3c3c50">─  </text><text x="592" y="351" fill="#3c3c50">─  </text><text x="601.6" y="351" fill="#3c3c50">─  </text><text x="611.1999999999999" y="351" fill="#3c3c50">─  </text><text x="620.8" y="351" fill="#3c3c50">─  </text><text x="630.4" y="351" fill="#3c3c50">─  </text><text x="640" y="351" fill="#3c3c50">─  </text><text x="649.6" y="351" fill="#3c3c50">─  </text><text x="659.1999999999999" y="351" fill="#3c3c50">─  </text><text x="668.8" y="351" fill="#3c3c50">┘  </text><text x="678.4" y="351" fill="#c85a1a">│  </text><text x="112" y="371" fill="#c85a1a">│  </text><text x="121.6" y="371" fill="#4189b5">T  </text><text x="131.2" y="371" fill="#4189b5">a  </text><text x="140.8" y="371" fill="#4189b5">b  </text><text x="150.4" y="371" fill="#4189b5">:  </text><text x="169.6" y="371" fill="#4189b5">n  </text><text x="179.2" y="371" fill="#4189b5">e  </text><text x="188.79999999999998" y="371" fill="#4189b5">x  </text><text x="198.4" y="371" fill="#4189b5">t  </text><text x="217.6" y="371" fill="#4189b5">f  </text><text x="227.2" y="371" fill="#4189b5">i  </text><text x="236.79999999999998" y="371" fill="#4189b5">e  </text><text x="246.39999999999998" y="371" fill="#4189b5">l  </text><text x="256" y="371" fill="#4189b5">d  </text><text x="284.8" y="371" fill="#4189b5">|  </text><text x="313.59999999999997" y="371" fill="#4189b5">E  </text><text x="323.2" y="371" fill="#4189b5">n  </text><text x="332.8" y="371" fill="#4189b5">t  </text><text x="342.4" y="371" fill="#4189b5">e  </text><text x="352" y="371" fill="#4189b5">r  </text><text x="361.59999999999997" y="371" fill="#4189b5">:  </text><text x="380.8" y="371" fill="#4189b5">s  </text><text x="390.4" y="371" fill="#4189b5">u  </text><text x="400" y="371" fill="#4189b5">b  </text><text x="409.59999999999997" y="371" fill="#4189b5">m  </text><text x="419.2" y="371" fill="#4189b5">i  </text><text x="428.8" y="371" fill="#4189b5">t  </text><text x="457.59999999999997" y="371" fill="#4189b5">|  </text><text x="486.4" y="371" fill="#4189b5">E  </text><text x="496" y="371" fill="#4189b5">s  </text><text x="505.59999999999997" y="371" fill="#4189b5">c  </text><text x="515.2" y="371" fill="#4189b5">:  </text><text x="534.4" y="371" fill="#4189b5">b  </text><text x="544" y="371" fill="#4189b5">a  </text><text x="553.6" y="371" fill="#4189b5">c  </text><text x="563.1999999999999" y="371" fill="#4189b5">k  </text><text x="678.4" y="371" fill="#c85a1a">│  </text><text x="112" y="391" fill="#c85a1a">│  </text><text x="678.4" y="391" fill="#c85a1a">│  </text><text x="112" y="411" fill="#c85a1a">└  </text><text x="121.6" y="411" fill="#c85a1a">─  </text><text x="131.2" y="411" fill="#c85a1a">─  </text><text x="140.8" y="411" fill="#c85a1a">─  </text><text x="150.4" y="411" fill="#c85a1a">─  </text><text x="160" y="411" fill="#c85a1a">─  </text><text x="169.6" y="411" fill="#c85a1a">─  </text><text x="179.2" y="411" fill="#c85a1a">─  </text><text x="188.79999999999998" y="411" fill="#c85a1a">─  </text><text x="198.4" y="411" fill="#c85a1a">─  </text><text x="208" y="411" fill="#c85a1a">─  </text><text x="217.6" y="411" fill="#c85a1a">─  </text><text x="227.2" y="411" fill="#c85a1a">─  </text><text x="236.79999999999998" y="411" fill="#c85a1a">─  </text><text x="246.39999999999998" y="411" fill="#c85a1a">─  </text><text x="256" y="411" fill="#c85a1a">─  </text><text x="265.6" y="411" fill="#c85a1a">─  </text><text x="275.2" y="411" fill="#c85a1a">─  </text><text x="284.8" y="411" fill="#c85a1a">─  </text><text x="294.4" y="411" fill="#c85a1a">─  </text><text x="304" y="411" fill="#c85a1a">─  </text><text x="313.59999999999997" y="411" fill="#c85a1a">─  </text><text x="323.2" y="411" fill="#c85a1a">─  </text><text x="332.8" y="411" fill="#c85a1a">─  </text><text x="342.4" y="411" fill="#c85a1a">─  </text><text x="352" y="411" fill="#c85a1a">─  </text><text x="361.59999999999997" y="411" fill="#c85a1a">─  </text><text x="371.2" y="411" fill="#c85a1a">─  </text><text x="380.8" y="411" fill="#c85a1a">─  </text><text x="390.4" y="411" fill="#c85a1a">─  </text><text x="400" y="411" fill="#c85a1a">─  </text><text x="409.59999999999997" y="411" fill="#c85a1a">─  </text><text x="419.2" y="411" fill="#c85a1a">─  </text><text x="428.8" y="411" fill="#c85a1a">─  </text><text x="438.4" y="411" fill="#c85a1a">─  </text><text x="448" y="411" fill="#c85a1a">─  </text><text x="457.59999999999997" y="411" fill="#c85a1a">─  </text><text x="467.2" y="411" fill="#c85a1a">─  </text><text x="476.79999999999995" y="411" fill="#c85a1a">─  </text><text x="486.4" y="411" fill="#c85a1a">─  </text><text x="496" y="411" fill="#c85a1a">─  </text><text x="505.59999999999997" y="411" fill="#c85a1a">─  </text><text x="515.2" y="411" fill="#c85a1a">─  </text><text x="524.8" y="411" fill="#c85a1a">─  </text><text x="534.4" y="411" fill="#c85a1a">─  </text><text x="544" y="411" fill="#c85a1a">─  </text><text x="553.6" y="411" fill="#c85a1a">─  </text><text x="563.1999999999999" y="411" fill="#c85a1a">─  </text><text x="572.8" y="411" fill="#c85a1a">─  </text><text x="582.4" y="411" fill="#c85a1a">─  </text><text x="592" y="411" fill="#c85a1a">─  </text><text x="601.6" y="411" fill="#c85a1a">─  </text><text x="611.1999999999999" y="411" fill="#c85a1a">─  </text><text x="620.8" y="411" fill="#c85a1a">─  </text><text x="630.4" y="411" fill="#c85a1a">─  </text><text x="640" y="411" fill="#c85a1a">─  </text><text x="649.6" y="411" fill="#c85a1a">─  </text><text x="659.1999999999999" y="411" fill="#c85a1a">─  </text><text x="668.8" y="411" fill="#c85a1a">─  </text><text x="678.4" y="411" fill="#c85a1a">┘  </text></svg>
