<svg xmlns="http://www.w3.org/2000/svg" viewBox="0 0 800 512" width="800" height="512">
<rect width="800" height="512" rx="8" ry="8" fill="#35383f"/>
<style>text { font-family: 'JetBrains Mono', 'Fira Code', 'SF Mono', 'Cascadia Code', Menlo, Monaco, monospace; font-size: 13.5px; }</style>
<text x="64" y="71" fill="#c85a1a">┌  </text><text x="83.2" y="71" fill="#dc7828">A  </text><text x="92.8" y="71" fill="#dc7828">c  </text><text x="102.39999999999999" y="71" fill="#dc7828">t  </text><text x="112" y="71" fill="#dc7828">i  </text><text x="121.6" y="71" fill="#dc7828">v  </text><text x="131.2" y="71" fill="#dc7828">e  </text><text x="150.4" y="71" fill="#dc7828">S  </text><text x="160" y="71" fill="#dc7828">e  </text><text x="169.6" y="71" fill="#dc7828">s  </text><text x="179.2" y="71" fill="#dc7828">s  </text><text x="188.79999999999998" y="71" fill="#dc7828">i  </text><text x="198.4" y="71" fill="#dc7828">o  </text><text x="208" y="71" fill="#dc7828">n  </text><text x="217.6" y="71" fill="#dc7828">s  </text><text x="236.79999999999998" y="71" fill="#c85a1a">─  </text><text x="246.39999999999998" y="71" fill="#c85a1a">─  </text><text x="256" y="71" fill="#c85a1a">─  </text><text x="265.6" y="71" fill="#c85a1a">─  </text><text x="275.2" y="71" fill="#c85a1a">─  </text><text x="284.8" y="71" fill="#c85a1a">─  </text><text x="294.4" y="71" fill="#c85a1a">─  </text><text x="304" y="71" fill="#c85a1a">─  </text><text x="313.59999999999997" y="71" fill="#c85a1a">─  </text><text x="323.2" y="71" fill="#c85a1a">─  </text><text x="332.8" y="71" fill="#c85a1a">─  </text><text x="342.4" y="71" fill="#c85a1a">─  </text><text x="352" y="71" fill="#c85a1a">─  </text><text x="361.59999999999997" y="71" fill="#c85a1a">─  </text><text x="371.2" y="71" fill="#c85a1a">─  </text><text x="380.8" y="71" fill="#c85a1a">─  </text><text x="390.4" y="71" fill="#c85a1a">─  </text><text x="400" y="71" fill="#c85a1a">─  </text><text x="409.59999999999997" y="71" fill="#c85a1a">─  </text><text x="419.2" y="71" fill="#c85a1a">─  </text><text x="428.8" y="71" fill="#c85a1a">─  </text><text x="438.4" y="71" fill="#c85a1a">─  </text><text x="448" y="71" fill="#c85a1a">─  </text><text x="457.59999999999997" y="71" fill="#c85a1a">─  </text><text x="467.2" y="71" fill="#c85a1a">─  </text><text x="476.79999999999995" y="71" fill="#c85a1a">─  </text><text x="486.4" y="71" fill="#c85a1a">─  </text><text x="496" y="71" fill="#c85a1a">─  </text><text x="505.59999999999997" y="71" fill="#c85a1a">─  </text><text x="515.2" y="71" fill="#c85a1a">─  </text><text x="524.8" y="71" fill="#c85a1a">─  </text><text x="534.4" y="71" fill="#c85a1a">─  </text><text x="544" y="71" fill="#c85a1a">─  </text><text x="553.6" y="71" fill="#c85a1a">─  </text><text x="563.1999999999999" y="71" fill="#c85a1a">─  </text><text x="572.8" y="71" fill="#c85a1a">─  </text><text x="582.4" y="71" fill="#c85a1a">─  </text><text x="592" y="71" fill="#c85a1a">─  </text><text x="601.6" y="71" fill="#c85a1a">─  </text><text x="611.1999999999999" y="71" fill="#c85a1a">─  </text><text x="620.8" y="71" fill="#c85a1a">─  </text><text x="630.4" y="71" fill="#c85a1a">─  </text><text x="640" y="71" fill="#c85a1a">─  </text><text x="649.6" y="71" fill="#c85a1a">─  </text><text x="659.1999999999999" y="71" fill="#c85a1a">─  </text><text x="668.8" y="71" fill="#c85a1a">─  </text><text x="678.4" y="71" fill="#c85a1a">─  </text><text x="688" y="71" fill="#c85a1a">─  </text><text x="697.6" y="71" fill="#c85a1a">─  </text><text x="707.1999999999999" y="71" fill="#c85a1a">─  </text><text x="716.8" y="71" fill="#c85a1a">─  </text><text x="726.4" y="71" fill="#c85a1a">┐  </text><text x="64" y="91" fill="#c85a1a">│  </text><rect x="73.6" y="76" width="10.1" height="20" fill="#3c3c50"/><text x="73.6" y="91" fill="#b4b4c3" font-weight="bold">▸  </text><rect x="83.2" y="76" width="10.1" height="20" fill="#3c3c50"/><rect x="92.8" y="76" width="10.1" height="20" fill="#3c3c50"/><text x="92.8" y="91" fill="#f9d943" font-weight="bold">f  </text><rect x="102.39999999999999" y="76" width="10.1" height="20" fill="#3c3c50"/><text x="102.39999999999999" y="91" fill="#f9d943" font-weight="bold">i  </text><rect x="112" y="76" width="10.1" height="20" fill="#3c3c50"/><text x="112" y="91" fill="#f9d943" font-weight="bold">x  </text><rect x="121.6" y="76" width="10.1" height="20" fill="#3c3c50"/><text x="121.6" y="91" fill="#f9d943" font-weight="bold">-  </text><rect x="131.2" y="76" width="10.1" height="20" fill="#3c3c50"/><text x="131.2" y="91" fill="#f9d943" font-weight="bold">a  </text><rect x="140.8" y="76" width="10.1" height="20" fill="#3c3c50"/><text x="140.8" y="91" fill="#f9d943" font-weight="bold">u  </text><rect x="150.4" y="76" width="10.1" height="20" fill="#3c3c50"/><text x="150.4" y="91" fill="#f9d943" font-weight="bold">t  </text><rect x="160" y="76" width="10.1" height="20" fill="#3c3c50"/><text x="160" y="91" fill="#f9d943" font-weight="bold">h  </text><rect x="169.6" y="76" width="10.1" height="20" fill="#3c3c50"/><text x="169.6" y="91" fill="#f9d943" font-weight="bold">-  </text><rect x="179.2" y="76" width="10.1" height="20" fill="#3c3c50"/><text x="179.2" y="91" fill="#f9d943" font-weight="bold">m  </text><rect x="188.79999999999998" y="76" width="10.1" height="20" fill="#3c3c50"/><text x="188.79999999999998" y="91" fill="#f9d943" font-weight="bold">i  </text><rect x="198.4" y="76" width="10.1" height="20" fill="#3c3c50"/><text x="198.4" y="91" fill="#f9d943" font-weight="bold">d  </text><rect x="208" y="76" width="10.1" height="20" fill="#3c3c50"/><text x="208" y="91" fill="#f9d943" font-weight="bold">d  </text><rect x="217.6" y="76" width="10.1" height="20" fill="#3c3c50"/><text x="217.6" y="91" fill="#f9d943" font-weight="bold">l  </text><rect x="227.2" y="76" width="10.1" height="20" fill="#3c3c50"/><text x="227.2" y="91" fill="#f9d943" font-weight="bold">e  </text><rect x="236.79999999999998" y="76" width="10.1" height="20" fill="#3c3c50"/><text x="236.79999999999998" y="91" fill="#f9d943" font-weight="bold">w  </text><rect x="246.39999999999998" y="76" width="10.1" height="20" fill="#3c3c50"/><text x="246.39999999999998" y="91" fill="#f9d943" font-weight="bold">a  </text><rect x="256" y="76" width="10.1" height="20" fill="#3c3c50"/><text x="256" y="91" fill="#f9d943" font-weight="bold">r  </text><rect x="265.6" y="76" width="10.1" height="20" fill="#3c3c50"/><text x="265.6" y="91" fill="#f9d943" font-weight="bold">e  </text><rect x="275.2" y="76" width="10.1" height="20" fill="#3c3c50"/><rect x="284.8" y="76" width="10.1" height="20" fill="#3c3c50"/><rect x="294.4" y="76" width="10.1" height="20" fill="#3c3c50"/><text x="294.4" y="91" fill="#4189b5" font-weight="bold">/  </text><rect x="304" y="76" width="10.1" height="20" fill="#3c3c50"/><text x="304" y="91" fill="#4189b5" font-weight="bold">h  </text><rect x="313.59999999999997" y="76" width="10.1" height="20" fill="#3c3c50"/><text x="313.59999999999997" y="91" fill="#4189b5" font-weight="bold">o  </text><rect x="323.2" y="76" width="10.1" height="20" fill="#3c3c50"/><text x="323.2" y="91" fill="#4189b5" font-weight="bold">m  </text><rect x="332.8" y="76" width="10.1" height="20" fill="#3c3c50"/><text x="332.8" y="91" fill="#4189b5" font-weight="bold">e  </text><rect x="342.4" y="76" width="10.1" height="20" fill="#3c3c50"/><text x="342.4" y="91" fill="#4189b5" font-weight="bold">/  </text><rect x="352" y="76" width="10.1" height="20" fill="#3c3c50"/><text x="352" y="91" fill="#4189b5" font-weight="bold">d  </text><rect x="361.59999999999997" y="76" width="10.1" height="20" fill="#3c3c50"/><text x="361.59999999999997" y="91" fill="#4189b5" font-weight="bold">e  </text><rect x="371.2" y="76" width="10.1" height="20" fill="#3c3c50"/><text x="371.2" y="91" fill="#4189b5" font-weight="bold">v  </text><rect x="380.8" y="76" width="10.1" height="20" fill="#3c3c50"/><text x="380.8" y="91" fill="#4189b5" font-weight="bold">/  </text><rect x="390.4" y="76" width="10.1" height="20" fill="#3c3c50"/><text x="390.4" y="91" fill="#4189b5" font-weight="bold">a  </text><rect x="400" y="76" width="10.1" height="20" fill="#3c3c50"/><text x="400" y="91" fill="#4189b5" font-weight="bold">p  </text><rect x="409.59999999999997" y="76" width="10.1" height="20" fill="#3c3c50"/><text x="409.59999999999997" y="91" fill="#4189b5" font-weight="bold">i  </text><rect x="419.2" y="76" width="10.1" height="20" fill="#3c3c50"/><text x="419.2" y="91" fill="#4189b5" font-weight="bold">-  </text><rect x="428.8" y="76" width="10.1" height="20" fill="#3c3c50"/><text x="428.8" y="91" fill="#4189b5" font-weight="bold">s  </text><rect x="438.4" y="76" width="10.1" height="20" fill="#3c3c50"/><text x="438.4" y="91" fill="#4189b5" font-weight="bold">e  </text><rect x="448" y="76" width="10.1" height="20" fill="#3c3c50"/><text x="448" y="91" fill="#4189b5" font-weight="bold">r  </text><rect x="457.59999999999997" y="76" width="10.1" height="20" fill="#3c3c50"/><text x="457.59999999999997" y="91" fill="#4189b5" font-weight="bold">v  </text><rect x="467.2" y="76" width="10.1" height="20" fill="#3c3c50"/><text x="467.2" y="91" fill="#4189b5" font-weight="bold">e  </text><rect x="476.79999999999995" y="76" width="10.1" height="20" fill="#3c3c50"/><text x="476.79999999999995" y="91" fill="#4189b5" font-weight="bold">r  </text><rect x="486.4" y="76" width="10.1" height="20" fill="#3c3c50"/><rect x="496" y="76" width="10.1" height="20" fill="#3c3c50"/><rect x="505.59999999999997" y="76" width="10.1" height="20" fill="#3c3c50"/><rect x="515.2" y="76" width="10.1" height="20" fill="#3c3c50"/><rect x="524.8" y="76" width="10.1" height="20" fill="#3c3c50"/><rect x="534.4" y="76" width="10.1" height="20" fill="#3c3c50"/><rect x="544" y="76" width="10.1" height="20" fill="#3c3c50"/><rect x="553.6" y="76" width="10.1" height="20" fill="#3c3c50"/><rect x="563.1999999999999" y="76" width="10.1" height="20" fill="#3c3c50"/><rect x="572.8" y="76" width="10.1" height="20" fill="#3c3c50"/><rect x="582.4" y="76" width="10.1" height="20" fill="#3c3c50"/><rect x="592" y="76" width="10.1" height="20" fill="#3c3c50"/><rect x="601.6" y="76" width="10.1" height="20" fill="#3c3c50"/><rect x="611.1999999999999" y="76" width="10.1" height="20" fill="#3c3c50"/><rect x="620.8" y="76" width="10.1" height="20" fill="#3c3c50"/><rect x="630.4" y="76" width="10.1" height="20" fill="#3c3c50"/><rect x="640" y="76" width="10.1" height="20" fill="#3c3c50"/><rect x="649.6" y="76" width="10.1" height="20" fill="#3c3c50"/><rect x="659.1999999999999" y="76" width="10.1" height="20" fill="#3c3c50"/><rect x="668.8" y="76" width="10.1" height="20" fill="#3c3c50"/><rect x="678.4" y="76" width="10.1" height="20" fill="#3c3c50"/><rect x="688" y="76" width="10.1" height="20" fill="#3c3c50"/><rect x="697.6" y="76" width="10.1" height="20" fill="#3c3c50"/><rect x="707.1999999999999" y="76" width="10.1" height="20" fill="#3c3c50"/><rect x="716.8" y="76" width="10.1" height="20" fill="#3c3c50"/><text x="726.4" y="91" fill="#c85a1a">│  </text><text x="64" y="111" fill="#c85a1a">│  </text><text x="92.8" y="111" fill="#f9d943" font-weight="bold">a  </text><text x="102.39999999999999" y="111" fill="#f9d943" font-weight="bold">d  </text><text x="112" y="111" fill="#f9d943" font-weight="bold">d  </text><text x="121.6" y="111" fill="#f9d943" font-weight="bold">-  </text><text x="131.2" y="111" fill="#f9d943" font-weight="bold">s  </text><text x="140.8" y="111" fill="#f9d943" font-weight="bold">e  </text><text x="150.4" y="111" fill="#f9d943" font-weight="bold">a  </text><text x="160" y="111" fill="#f9d943" font-weight="bold">r  </text><text x="169.6" y="111" fill="#f9d943" font-weight="bold">c  </text><text x="179.2" y="111" fill="#f9d943" font-weight="bold">h  </text><text x="188.79999999999998" y="111" fill="#f9d943" font-weight="bold">-  </text><text x="198.4" y="111" fill="#f9d943" font-weight="bold">f  </text><text x="208" y="111" fill="#f9d943" font-weight="bold">e  </text><text x="217.6" y="111" fill="#f9d943" font-weight="bold">a  </text><text x="227.2" y="111" fill="#f9d943" font-weight="bold">t  </text><text x="236.79999999999998" y="111" fill="#f9d943" font-weight="bold">u  </text><text x="246.39999999999998" y="111" fill="#f9d943" font-weight="bold">r  </text><text x="256" y="111" fill="#f9d943" font-weight="bold">e  </text><text x="284.8" y="111" fill="#4189b5">/  </text><text x="294.4" y="111" fill="#4189b5">h  </text><text x="304" y="111" fill="#4189b5">o  </text><text x="313.59999999999997" y="111" fill="#4189b5">m  </text><text x="323.2" y="111" fill="#4189b5">e  </text><text x="332.8" y="111" fill="#4189b5">/  </text><text x="342.4" y="111" fill="#4189b5">d  </text><text x="352" y="111" fill="#4189b5">e  </text><text x="361.59999999999997" y="111" fill="#4189b5">v  </text><text x="371.2" y="111" fill="#4189b5">/  </text><text x="380.8" y="111" fill="#4189b5">w  </text><text x="390.4" y="111" fill="#4189b5">e  </text><text x="400" y="111" fill="#4189b5">b  </text><text x="409.59999999999997" y="111" fill="#4189b5">a  </text><text x="419.2" y="111" fill="#4189b5">p  </text><text x="428.8" y="111" fill="#4189b5">p  </text><text x="726.4" y="111" fill="#c85a1a">│  </text><text x="64" y="131" fill="#c85a1a">│  </text><text x="92.8" y="131" fill="#f9d943" font-weight="bold">r  </text><text x="102.39999999999999" y="131" fill="#f9d943" font-weight="bold">e  </text><text x="112" y="131" fill="#f9d943" font-weight="bold">f  </text><text x="121.6" y="131" fill="#f9d943" font-weight="bold">a  </text><text x="131.2" y="131" fill="#f9d943" font-weight="bold">c  </text><text x="140.8" y="131" fill="#f9d943" font-weight="bold">t  </text><text x="150.4" y="131" fill="#f9d943" font-weight="bold">o  </text><text x="160" y="131" fill="#f9d943" font-weight="bold">r  </text><text x="169.6" y="131" fill="#f9d943" font-weight="bold">-  </text><text x="179.2" y="131" fill="#f9d943" font-weight="bold">d  </text><text x="188.79999999999998" y="131" fill="#f9d943" font-weight="bold">a  </text><text x="198.4" y="131" fill="#f9d943" font-weight="bold">t  </text><text x="208" y="131" fill="#f9d943" font-weight="bold">a  </text><text x="217.6" y="131" fill="#f9d943" font-weight="bold">b  </text><text x="227.2" y="131" fill="#f9d943" font-weight="bold">a  </text><text x="236.79999999999998" y="131" fill="#f9d943" font-weight="bold">s  </text><text x="246.39999999999998" y="131" fill="#f9d943" font-weight="bold">e  </text><text x="275.2" y="131" fill="#4189b5">/  </text><text x="284.8" y="131" fill="#4189b5">h  </text><text x="294.4" y="131" fill="#4189b5">o  </text><text x="304" y="131" fill="#4189b5">m  </text><text x="313.59999999999997" y="131" fill="#4189b5">e  </text><text x="323.2" y="131" fill="#4189b5">/  </text><text x="332.8" y="131" fill="#4189b5">d  </text><text x="342.4" y="131" fill="#4189b5">e  </text><text x="352" y="131" fill="#4189b5">v  </text><text x="361.59999999999997" y="131" fill="#4189b5">/  </text><text x="371.2" y="131" fill="#4189b5">b  </text><text x="380.8" y="131" fill="#4189b5">a  </text><text x="390.4" y="131" fill="#4189b5">c  </text><text x="400" y="131" fill="#4189b5">k  </text><text x="409.59999999999997" y="131" fill="#4189b5">e  </text><text x="419.2" y="131" fill="#4189b5">n  </text><text x="428.8" y="131" fill="#4189b5">d  </text><text x="726.4" y="131" fill="#c85a1a">│  </text><text x="64" y="151" fill="#c85a1a">│  </text><text x="92.8" y="151" fill="#f9d943" font-weight="bold">u  </text><text x="102.39999999999999" y="151" fill="#f9d943" font-weight="bold">p  </text><text x="112" y="151" fill="#f9d943" font-weight="bold">d  </text><text x="121.6" y="151" fill="#f9d943" font-weight="bold">a  </text><text x="131.2" y="151" fill="#f9d943" font-weight="bold">t  </text><text x="140.8" y="151" fill="#f9d943" font-weight="bold">e  </text><text x="150.4" y="151" fill="#f9d943" font-weight="bold">-  </text><text x="160" y="151" fill="#f9d943" font-weight="bold">c  </text><text x="169.6" y="151" fill="#f9d943" font-weight="bold">i  </text><text x="179.2" y="151" fill="#f9d943" font-weight="bold">-  </text><text x="188.79999999999998" y="151" fill="#f9d943" font-weight="bold">p  </text><text x="198.4" y="151" fill="#f9d943" font-weight="bold">i  </text><text x="208" y="151" fill="#f9d943" font-weight="bold">p  </text><text x="217.6" y="151" fill="#f9d943" font-weight="bold">e  </text><text x="227.2" y="151" fill="#f9d943" font-weight="bold">l  </text><text x="236.79999999999998" y="151" fill="#f9d943" font-weight="bold">i  </text><text x="246.39999999999998" y="151" fill="#f9d943" font-weight="bold">n  </text><text x="256" y="151" fill="#f9d943" font-weight="bold">e  </text><text x="284.8" y="151" fill="#4189b5">/  </text><text x="294.4" y="151" fill="#4189b5">h  </text><text x="304" y="151" fill="#4189b5">o  </text><text x="313.59999999999997" y="151" fill="#4189b5">m  </text><text x="323.2" y="151" fill="#4189b5">e  </text><text x="332.8" y="151" fill="#4189b5">/  </text><text x="342.4" y="151" fill="#4189b5">d  </text><text x="352" y="151" fill="#4189b5">e  </text><text x="361.59999999999997" y="151" fill="#4189b5">v  </text><text x="371.2" y="151" fill="#4189b5">/  </text><text x="380.8" y="151" fill="#4189b5">i  </text><text x="390.4" y="151" fill="#4189b5">n  </text><text x="400" y="151" fill="#4189b5">f  </text><text x="409.59999999999997" y="151" fill="#4189b5">r  </text><text x="419.2" y="151" fill="#4189b5">a  </text><text x="726.4" y="151" fill="#c85a1a">│  </text><text x="64" y="171" fill="#c85a1a">│  </text><text x="726.4" y="171" fill="#c85a1a">│  </text><text x="64" y="191" fill="#c85a1a">│  </text><text x="726.4" y="191" fill="#c85a1a">│  </text><text x="64" y="211" fill="#c85a1a">│  </text><text x="726.4" y="211" fill="#c85a1a">│  </text><text x="64" y="231" fill="#c85a1a">│  </text><text x="726.4" y="231" fill="#c85a1a">│  </text><text x="64" y="251" fill="#c85a1a">│  </text><text x="726.4" y="251" fill="#c85a1a">│  </text><text x="64" y="271" fill="#c85a1a">│  </text><text x="726.4" y="271" fill="#c85a1a">│  </text><text x="64" y="291" fill="#c85a1a">│  </text><text x="726.4" y="291" fill="#c85a1a">│  </text><text x="64" y="311" fill="#c85a1a">│  </text><text x="726.4" y="311" fill="#c85a1a">│  </text><text x="64" y="331" fill="#c85a1a">│  </text><text x="726.4" y="331" fill="#c85a1a">│  </text><text x="64" y="351" fill="#c85a1a">│  </text><text x="726.4" y="351" fill="#c85a1a">│  </text><text x="64" y="371" fill="#c85a1a">│  </text><text x="726.4" y="371" fill="#c85a1a">│  </text><text x="64" y="391" fill="#c85a1a">│  </text><text x="726.4" y="391" fill="#c85a1a">│  </text><text x="64" y="411" fill="#c85a1a">│  </text><text x="73.6" y="411" fill="#4189b5">j  </text><text x="83.2" y="411" fill="#4189b5">/  </text><text x="92.8" y="411" fill="#4189b5">k  </text><text x="102.39999999999999" y="411" fill="#4189b5">:  </text><text x="121.6" y="411" fill="#4189b5">n  </text><text x="131.2" y="411" fill="#4189b5">a  </text><text x="140.8" y="411" fill="#4189b5">v  </text><text x="150.4" y="411" fill="#4189b5">i  </text><text x="160" y="411" fill="#4189b5">g  </text><text x="169.6" y="411" fill="#4189b5">a  </text><text x="179.2" y="411" fill="#4189b5">t  </text><text x="188.79999999999998" y="411" fill="#4189b5">e  </text><text x="217.6" y="411" fill="#4189b5">|  </text><text x="246.39999999999998" y="411" fill="#4189b5">E  </text><text x="256" y="411" fill="#4189b5">n  </text><text x="265.6" y="411" fill="#4189b5">t  </text><text x="275.2" y="411" fill="#4189b5">e  </text><text x="284.8" y="411" fill="#4189b5">r  </text><text x="294.4" y="411" fill="#4189b5">:  </text><text x="313.59999999999997" y="411" fill="#4189b5">a  </text><text x="323.2" y="411" fill="#4189b5">t  </text><text x="332.8" y="411" fill="#4189b5">t  </text><text x="342.4" y="411" fill="#4189b5">a  </text><text x="352" y="411" fill="#4189b5">c  </text><text x="361.59999999999997" y="411" fill="#4189b5">h  </text><text x="390.4" y="411" fill="#4189b5">|  </text><text x="419.2" y="411" fill="#4189b5">x  </text><text x="428.8" y="411" fill="#4189b5">:  </text><text x="448" y="411" fill="#4189b5">k  </text><text x="457.59999999999997" y="411" fill="#4189b5">i  </text><text x="467.2" y="411" fill="#4189b5">l  </text><text x="476.79999999999995" y="411" fill="#4189b5">l  </text><text x="505.59999999999997" y="411" fill="#4189b5">|  </text><text x="534.4" y="411" fill="#4189b5">n  </text><text x="544" y="411" fill="#4189b5">:  </text><text x="563.1999999999999" y="411" fill="#4189b5">n  </text><text x="572.8" y="411" fill="#4189b5">e  </text><text x="582.4" y="411" fill="#4189b5">w  </text><text x="611.1999999999999" y="411" fill="#4189b5">|  </text><text x="640" y="411" fill="#4189b5">q  </text><text x="649.6" y="411" fill="#4189b5">:  </text><text x="668.8" y="411" fill="#4189b5">q  </text><text x="678.4" y="411" fill="#4189b5">u  </text><text x="688" y="411" fill="#4189b5">i  </text><text x="697.6" y="411" fill="#4189b5">t  </text><text x="726.4" y="411" fill="#c85a1a">│  </text><text x="64" y="431" fill="#c85a1a">│  </text><text x="726.4" y="431" fill="#c85a1a">│  </text><text x="64" y="451" fill="#c85a1a">└  </text><text x="73.6" y="451" fill="#c85a1a">─  </text><text x="83.2" y="451" fill="#c85a1a">─  </text><text x="92.8" y="451" fill="#c85a1a">─  </text><text x="102.39999999999999" y="451" fill="#c85a1a">─  </text><text x="112" y="451" fill="#c85a1a">─  </text><text x="121.6" y="451" fill="#c85a1a">─  </text><text x="131.2" y="451" fill="#c85a1a">─  </text><text x="140.8" y="451" fill="#c85a1a">─  </text><text x="150.4" y="451" fill="#c85a1a">─  </text><text x="160" y="451" fill="#c85a1a">─  </text><text x="169.6" y="451" fill="#c85a1a">─  </text><text x="179.2" y="451" fill="#c85a1a">─  </text><text x="188.79999999999998" y="451" fill="#c85a1a">─  </text><text x="198.4" y="451" fill="#c85a1a">─  </text><text x="208" y="451" fill="#c85a1a">─  </text><text x="217.6" y="451" fill="#c85a1a">─  </text><text x="227.2" y="451" fill="#c85a1a">─  </text><text x="236.79999999999998" y="451" fill="#c85a1a">─  </text><text x="246.39999999999998" y="451" fill="#c85a1a">─  </text><text x="256" y="451" fill="#c85a1a">─  </text><text x="265.6" y="451" fill="#c85a1a">─  </text><text x="275.2" y="451" fill="#c85a1a">─  </text><text x="284.8" y="451" fill="#c85a1a">─  </text><text x="294.4" y="451" fill="#c85a1a">─  </text><text x="304" y="451" fill="#c85a1a">─  </text><text x="313.59999999999997" y="451" fill="#c85a1a">─  </text><text x="323.2" y="451" fill="#c85a1a">─  </text><text x="332.8" y="451" fill="#c85a1a">─  </text><text x="342.4" y="451" fill="#c85a1a">─  </text><text x="352" y="451" fill="#c85a1a">─  </text><text x="361.59999999999997" y="451" fill="#c85a1a">─  </text><text x="371.2" y="451" fill="#c85a1a">─  </text><text x="380.8" y="451" fill="#c85a1a">─  </text><text x="390.4" y="451" fill="#c85a1a">─  </text><text x="400" y="451" fill="#c85a1a">─  </text><text x="409.59999999999997" y="451" fill="#c85a1a">─  </text><text x="419.2" y="451" fill="#c85a1a">─  </text><text x="428.8" y="451" fill="#c85a1a">─  </text><text x="438.4" y="451" fill="#c85a1a">─  </text><text x="448" y="451" fill="#c85a1a">─  </text><text x="457.59999999999997" y="451" fill="#c85a1a">─  </text><text x="467.2" y="451" fill="#c85a1a">─  </text><text x="476.79999999999995" y="451" fill="#c85a1a">─  </text><text x="486.4" y="451" fill="#c85a1a">─  </text><text x="496" y="451" fill="#c85a1a">─  </text><text x="505.59999999999997" y="451" fill="#c85a1a">─  </text><text x="515.2" y="451" fill="#c85a1a">─  </text><text x="524.8" y="451" fill="#c85a1a">─  </text><text x="534.4" y="451" fill="#c85a1a">─  </text><text x="544" y="451" fill="#c85a1a">─  </text><text x="553.6" y="451" fill="#c85a1a">─  </text><text x="563.1999999999999" y="451" fill="#c85a1a">─  </text><text x="572.8" y="451" fill="#c85a1a">─  </text><text x="582.4" y="451" fill="#c85a1a">─  </text><text x="592" y="451" fill="#c85a1a">─  </text><text x="601.6" y="451" fill="#c85a1a">─  </text><text x="611.1999999999999" y="451" fill="#c85a1a">─  </text><text x="620.8" y="451" fill="#c85a1a">─  </text><text x="630.4" y="451" fill="#c85a1a">─  </text><text x="640" y="451" fill="#c85a1a">─  </text><text x="649.6" y="451" fill="#c85a1a">─  </text><text x="659.1999999999999" y="451" fill="#c85a1a">─  </text><text x="668.8" y="451" fill="#c85a1a">─  </text><text x="678.4" y="451" fill="#c85a1a">─  </text><text x="688" y="451" fill="#c85a1a">─  </text><text x="697.6" y="451" fill="#c85a1a">─  </text><text x="707.1999999999999" y="451" fill="#c85a1a">─  </text><text x="716.8" y="451" fill="#c85a1a">─  </text><text x="726.4" y="451" fill="#c85a1a">┘  </text></svg>
